# xmcd CD database file
#
# Track frame offsets:
#	150
#	11810
#	23347
#	36257
#	46852
#	58930
#	69820
#	81225
#	94455
#	105572
#	116822
#	129817
#	140992
#	153070
#	163405
#	175020
#	187050
#	201237
#	210887
#	221107
#	234625
#	247120
#	256487
#	265215
#	273732
#	284932
#
# Disc length: 3929 seconds
#
# Revision: 0
# Processed by: cddbd v1.5PL3 Copyright (c) Steve Scherf et al.
# Submitted via: CDex 1.51
#
DISCID=8f0f571a
DTITLE=Jimmy Work - Making Believe (2 of 2)
DYEAR=1993
DGENRE=Country
TTITLE0=Crazy Moon
TTITLE1=Little Popcorn Man
TTITLE2=How Can I Love You (When You're Not Around)
TTITLE3=Out of My Mind
TTITLE4=That's What Make the Jukebox Play
TTITLE5=Don't Give Me a Reason to Wonder Why
TTITLE6=Just Like Downtown
TTITLE7=Making Believe
TTITLE8=Don't Knock, Just Come In
TTITLE9=Let 'Em Talk
TTITLE10=My Old Stomping Ground
TTITLE11=Blind Heart
TTITLE12=There's Only One You
TTITLE13=Puttin' on the Dog (Tom Cattin' Around)
TTITLE14=When She Said You All
TTITLE15=Hands Away from My Heart
TTITLE16=Rock Island Line
TTITLE17=That's the Way It's Gonna Be
TTITLE18=You've Got a Heart Like a Merry-Go-Round
TTITLE19=Blind Heart
TTITLE20=That Cold, Cold Look in Your Eye
TTITLE21=Digging My Own Grave
TTITLE22=Tennessee Border
TTITLE23=Let Me Be Alone
TTITLE24=I Never Thought I'd Have the Blues
TTITLE25=I Dreamed Last Night
EXTD=YEAR: 1993
EXTT0=
EXTT1=
EXTT2=
EXTT3=
EXTT4=
EXTT5=
EXTT6=
EXTT7=
EXTT8=
EXTT9=
EXTT10=
EXTT11=
EXTT12=
EXTT13=
EXTT14=
EXTT15=
EXTT16=
EXTT17=
EXTT18=
EXTT19=
EXTT20=
EXTT21=
EXTT22=
EXTT23=
EXTT24=
EXTT25=
PLAYORDER=
